<svg xmlns="http://www.w3.org/2000/svg" width="805" height="600"><rect width="805" height="600" x="0" y="0" fill="#FFFFFF" id="backgorund"/><g transform="translate(10,10)" id="visualization"><g><rect x="0" y="17.5" height="132.012987012987" width="5" fill="black"><title>1: 323</title></rect><rect x="0" y="154.512987012987" height="113.21237585943467" width="5" fill="black"><title>2: 277</title></rect><rect x="0" y="272.72536287242167" height="289.77463712757833" width="5" fill="black"><title>3: 709</title></rect><rect x="390" y="0" height="33.51413292589763" width="5" fill="black"><title>0 - 9: 82</title></rect><rect x="390" y="38.51413292589763" height="58.44537815126051" width="5" fill="black"><title>10 - 19: 143</title></rect><rect x="390" y="101.95951107715814" height="140.59587471352177" width="5" fill="black"><title>20 - 29: 344</title></rect><rect x="390" y="247.5553857906799" height="94.82047364400302" width="5" fill="black"><title>30 - 39: 232</title></rect><rect x="390" y="347.3758594346829" height="55.175706646294884" width="5" fill="black"><title>40 - 49: 135</title></rect><rect x="390" y="407.5515660809778" height="28.609625668449212" width="5" fill="black"><title>50 - 59: 70</title></rect><rect x="390" y="441.161191749427" height="13.078686019862516" width="5" fill="black"><title>60 - 69: 32</title></rect><rect x="390" y="459.23987776928954" height="2.8609625668449326" width="5" fill="black"><title>70 - 79: 7</title></rect><rect x="390" y="467.10084033613447" height="0.40870893812069653" width="5" fill="black"><title>80 - 89: 1</title></rect><rect x="780" y="20" height="330.64553093964855" width="5" fill="black"><title>no: 809</title></rect><rect x="390" y="472.50954927425516" height="107.49045072574484" width="5" fill="black"><title>unknown: 263</title></rect><rect x="780" y="355.64553093964855" height="204.35446906035145" width="5" fill="black"><title>yes: 500</title></rect></g><g fill="none" stroke-opacity="1"><g style="mix-blend-mode: multiply;"><path d="M5,38.752864782276546C197.5,38.752864782276546,197.5,112.58594346829642,390,112.58594346829642" stroke="#cccccc" stroke-width="21.252864782276546"/><title>1 → 20 - 29: 52</title></g><g style="mix-blend-mode: multiply;"><path d="M5,18.317417876241407C197.5,18.317417876241407,197.5,0.8174178762414056,390,0.8174178762414056" stroke="#cccccc" stroke-width="1.6348357524828112"/><title>1 → 0 - 9: 4</title></g><g style="mix-blend-mode: multiply;"><path d="M5,64.09281894576011C197.5,64.09281894576011,197.5,262.2689075630252,390,262.2689075630252" stroke="#cccccc" stroke-width="29.4270435446906"/><title>1 → 30 - 39: 72</title></g><g style="mix-blend-mode: multiply;"><path d="M5,91.47631779984721C197.5,91.47631779984721,197.5,360.0458365164247,390,360.0458365164247" stroke="#cccccc" stroke-width="25.339954163483572"/><title>1 → 40 - 49: 62</title></g><g style="mix-blend-mode: multiply;"><path d="M5,127.2383498854087C197.5,127.2383498854087,197.5,445.4526355996944,390,445.4526355996944" stroke="#cccccc" stroke-width="8.582887700534759"/><title>1 → 60 - 69: 21</title></g><g style="mix-blend-mode: multiply;"><path d="M5,113.54660045836515C197.5,113.54660045836515,197.5,416.951871657754,390,416.951871657754" stroke="#cccccc" stroke-width="18.800611153552328"/><title>1 → 50 - 59: 46</title></g><g style="mix-blend-mode: multiply;"><path d="M5,132.34721161191746C197.5,132.34721161191746,197.5,460.0572956455309,390,460.0572956455309" stroke="#cccccc" stroke-width="1.6348357524828112"/><title>1 → 70 - 79: 4</title></g><g style="mix-blend-mode: multiply;"><path d="M5,23.63063407181054C197.5,23.63063407181054,197.5,43.00993124522536,390,43.00993124522536" stroke="#cccccc" stroke-width="8.991596638655462"/><title>1 → 10 - 19: 22</title></g><g style="mix-blend-mode: multiply;"><path d="M5,133.36898395721923C197.5,133.36898395721923,197.5,467.30519480519484,390,467.30519480519484" stroke="#cccccc" stroke-width="1"/><title>1 → 80 - 89: 1</title></g><g style="mix-blend-mode: multiply;"><path d="M5,141.54316271963327C197.5,141.54316271963327,197.5,480.4793735676089,390,480.4793735676089" stroke="#cccccc" stroke-width="15.93964858670741"/><title>1 → unknown: 39</title></g><g style="mix-blend-mode: multiply;"><path d="M5,225.21963330786858C197.5,225.21963330786858,197.5,290.061115355233,390,290.061115355233" stroke="#cccccc" stroke-width="26.15737203972498"/><title>2 → 30 - 39: 64</title></g><g style="mix-blend-mode: multiply;"><path d="M5,193.74904507257446C197.5,193.74904507257446,197.5,141.6042780748663,390,141.6042780748663" stroke="#cccccc" stroke-width="36.78380443086325"/><title>2 → 20 - 29: 90</title></g><g style="mix-blend-mode: multiply;"><path d="M5,169.43086325439265C197.5,169.43086325439265,197.5,53.432009167303285,390,53.432009167303285" stroke="#cccccc" stroke-width="11.85255920550038"/><title>2 → 10 - 19: 29</title></g><g style="mix-blend-mode: multiply;"><path d="M5,254.44232238349883C197.5,254.44232238349883,197.5,429.8262032085561,390,429.8262032085561" stroke="#cccccc" stroke-width="6.948051948051948"/><title>2 → 50 - 59: 17</title></g><g style="mix-blend-mode: multiply;"><path d="M5,159.00878533231472C197.5,159.00878533231472,197.5,6.130634071810542,390,6.130634071810542" stroke="#cccccc" stroke-width="8.991596638655462"/><title>2 → 0 - 9: 22</title></g><g style="mix-blend-mode: multiply;"><path d="M5,244.63330786860195C197.5,244.63330786860195,197.5,379.0508021390374,390,379.0508021390374" stroke="#cccccc" stroke-width="12.669977081741786"/><title>2 → 40 - 49: 31</title></g><g style="mix-blend-mode: multiply;"><path d="M5,259.34682964094725C197.5,259.34682964094725,197.5,451.1745607333842,390,451.1745607333842" stroke="#cccccc" stroke-width="2.8609625668449197"/><title>2 → 60 - 69: 7</title></g><g style="mix-blend-mode: multiply;"><path d="M5,264.45569136745604C197.5,264.45569136745604,197.5,491.7188693659282,390,491.7188693659282" stroke="#cccccc" stroke-width="6.539343009931245"/><title>2 → unknown: 16</title></g><g style="mix-blend-mode: multiply;"><path d="M5,260.9816653934301C197.5,260.9816653934301,197.5,461.0790679908327,390,461.0790679908327" stroke="#cccccc" stroke-width="1"/><title>2 → 70 - 79: 1</title></g><g style="mix-blend-mode: multiply;"><path d="M5,463.59243697478985C197.5,463.59243697478985,197.5,393.968678380443,390,393.968678380443" stroke="#f8e71c" stroke-width="17.165775401069517"/><title>3 → 40 - 49: 42</title></g><g style="mix-blend-mode: multiply;"><path d="M5,314.41367456073334C197.5,314.41367456073334,197.5,78.1588999236058,390,78.1588999236058" stroke="#f8e71c" stroke-width="37.601222307104656"/><title>3 → 10 - 19: 92</title></g><g style="mix-blend-mode: multiply;"><path d="M5,435.39152024446133C197.5,435.39152024446133,197.5,322.7578304048892,390,322.7578304048892" stroke="#f8e71c" stroke-width="39.23605805958747"/><title>3 → 30 - 39: 96</title></g><g style="mix-blend-mode: multiply;"><path d="M5,374.49388846447664C197.5,374.49388846447664,197.5,201.2757830404889,390,201.2757830404889" stroke="#f8e71c" stroke-width="82.55920550038196"/><title>3 → 20 - 29: 202</title></g><g style="mix-blend-mode: multiply;"><path d="M5,284.16921313980134C197.5,284.16921313980134,197.5,22.070282658517954,390,22.070282658517954" stroke="#f8e71c" stroke-width="22.887700534759357"/><title>3 → 0 - 9: 56</title></g><g style="mix-blend-mode: multiply;"><path d="M5,519.9942704354469C197.5,519.9942704354469,197.5,537.4942704354469,390,537.4942704354469" stroke="#f8e71c" stroke-width="85.01145912910619"/><title>3 → unknown: 208</title></g><g style="mix-blend-mode: multiply;"><path d="M5,477.07983193277306C197.5,477.07983193277306,197.5,461.6921313980137,390,461.6921313980137" stroke="#f8e71c" stroke-width="1"/><title>3 → 70 - 79: 2</title></g><g style="mix-blend-mode: multiply;"><path d="M5,473.6058059587471C197.5,473.6058059587471,197.5,434.73071046600455,390,434.73071046600455" stroke="#f8e71c" stroke-width="2.8609625668449197"/><title>3 → 50 - 59: 7</title></g><g style="mix-blend-mode: multiply;"><path d="M5,475.85370511841097C197.5,475.85370511841097,197.5,453.4224598930481,390,453.4224598930481" stroke="#f8e71c" stroke-width="1.6348357524828112"/><title>3 → 60 - 69: 4</title></g><g style="mix-blend-mode: multiply;"><path d="M395,216.60236822001528C587.5,216.60236822001528,587.5,424.9216959511077,780,424.9216959511077" stroke="#f7ac38" stroke-width="51.906035141329255"/><title>20 - 29 → yes: 127</title></g><g style="mix-blend-mode: multiply;"><path d="M395,23.296409472880057C587.5,23.296409472880057,587.5,365.86325439266614,780,365.86325439266614" stroke="#9b9b9b" stroke-width="20.43544690603514"/><title>0 - 9 → yes: 50</title></g><g style="mix-blend-mode: multiply;"><path d="M395,6.539343009931245C587.5,6.539343009931245,587.5,26.539343009931244,780,26.539343009931244" stroke="#9b9b9b" stroke-width="13.07868601986249"/><title>0 - 9 → no: 32</title></g><g style="mix-blend-mode: multiply;"><path d="M395,274.938884644767C587.5,274.938884644767,587.5,184.70970206264323,780,184.70970206264323" stroke="#f6c795" stroke-width="54.76699770817417"/><title>30 - 39 → no: 134</title></g><g style="mix-blend-mode: multiply;"><path d="M395,146.3044308632544C587.5,146.3044308632544,587.5,112.98128342245988,780,112.98128342245988" stroke="#f7ac38" stroke-width="88.68983957219251"/><title>20 - 29 → no: 217</title></g><g style="mix-blend-mode: multiply;"><path d="M395,391.9251336898395C587.5,391.9251336898395,587.5,501.5546218487395,780,501.5546218487395" stroke="#9b9b9b" stroke-width="21.252864782276546"/><title>40 - 49 → yes: 52</title></g><g style="mix-blend-mode: multiply;"><path d="M395,452.196333078686C587.5,452.196333078686,587.5,527.3032849503438,780,527.3032849503438" stroke="#767475" stroke-width="4.087089381207028"/><title>60 - 69 → yes: 10</title></g><g style="mix-blend-mode: multiply;"><path d="M395,429.62184873949576C587.5,429.62184873949576,587.5,518.720397249809,780,518.720397249809" stroke="#dedad9" stroke-width="13.07868601986249"/><title>50 - 59 → yes: 32</title></g><g style="mix-blend-mode: multiply;"><path d="M395,460.4660045836516C587.5,460.4660045836516,587.5,271.76470588235287,780,271.76470588235287" stroke="#7f7f7f" stroke-width="2.452253628724217"/><title>70 - 79 → no: 6</title></g><g style="mix-blend-mode: multiply;"><path d="M395,364.3372803666921C587.5,364.3372803666921,587.5,229.0546218487395,780,229.0546218487395" stroke="#9b9b9b" stroke-width="33.92284186401833"/><title>40 - 49 → no: 83</title></g><g style="mix-blend-mode: multiply;"><path d="M395,85.51566080977844C587.5,85.51566080977844,587.5,387.5248281130634,780,387.5248281130634" stroke="#d7d5d4" stroke-width="22.887700534759357"/><title>10 - 19 → yes: 56</title></g><g style="mix-blend-mode: multiply;"><path d="M395,467.30519480519484C587.5,467.30519480519484,587.5,529.9598930481285,780,529.9598930481285" stroke="#bcbd22" stroke-width="1"/><title>80 - 89 → yes: 1</title></g><g style="mix-blend-mode: multiply;"><path d="M395,511.33689839572196C587.5,511.33689839572196,587.5,311.81818181818176,780,311.81818181818176" stroke="#cccccc" stroke-width="77.65469824293353"/><title>unknown → no: 190</title></g><g style="mix-blend-mode: multiply;"><path d="M395,322.3491214667685C587.5,322.3491214667685,587.5,470.90145148968674,780,470.90145148968674" stroke="#f6c795" stroke-width="40.05347593582888"/><title>30 - 39 → yes: 98</title></g><g style="mix-blend-mode: multiply;"><path d="M395,565.0821237585943C587.5,565.0821237585943,587.5,545.0821237585945,780,545.0821237585945" stroke="#cccccc" stroke-width="29.835752482811305"/><title>unknown → yes: 73</title></g><g style="mix-blend-mode: multiply;"><path d="M395,56.292971734148196C587.5,56.292971734148196,587.5,50.85752482811306,780,50.85752482811306" stroke="#d7d5d4" stroke-width="35.557677616501145"/><title>10 - 19 → no: 87</title></g><g style="mix-blend-mode: multiply;"><path d="M395,461.89648586707415C587.5,461.89648586707415,587.5,529.5511841100077,780,529.5511841100077" stroke="#7f7f7f" stroke-width="1"/><title>70 - 79 → yes: 1</title></g><g style="mix-blend-mode: multiply;"><path d="M395,415.31703590527115C587.5,415.31703590527115,587.5,253.781512605042,780,253.781512605042" stroke="#dedad9" stroke-width="15.530939648586706"/><title>50 - 59 → no: 38</title></g><g style="mix-blend-mode: multiply;"><path d="M395,445.65699006875474C587.5,445.65699006875474,587.5,266.04278074866306,780,266.04278074866306" stroke="#767475" stroke-width="8.991596638655462"/><title>60 - 69 → no: 22</title></g></g><g><text x="9" y="83.5064935064935" text-anchor="start"><tspan alignment-baseline="middle" x="9" style="font-family: Arial, sans-serif; font-size: 10px; fill: black; font-weight: bold;">1</tspan></text><text x="9" y="211.11917494270432" text-anchor="start"><tspan alignment-baseline="middle" x="9" style="font-family: Arial, sans-serif; font-size: 10px; fill: black; font-weight: bold;">2</tspan></text><text x="9" y="417.61268143621083" text-anchor="start"><tspan alignment-baseline="middle" x="9" style="font-family: Arial, sans-serif; font-size: 10px; fill: black; font-weight: bold;">3</tspan></text><text x="399" y="16.757066462948814" text-anchor="start"><tspan alignment-baseline="middle" x="399" style="font-family: Arial, sans-serif; font-size: 10px; fill: black; font-weight: bold;">0 - 9</tspan></text><text x="399" y="67.73682200152788" text-anchor="start"><tspan alignment-baseline="middle" x="399" style="font-family: Arial, sans-serif; font-size: 10px; fill: black; font-weight: bold;">10 - 19</tspan></text><text x="399" y="172.25744843391902" text-anchor="start"><tspan alignment-baseline="middle" x="399" style="font-family: Arial, sans-serif; font-size: 10px; fill: black; font-weight: bold;">20 - 29</tspan></text><text x="399" y="294.9656226126814" text-anchor="start"><tspan alignment-baseline="middle" x="399" style="font-family: Arial, sans-serif; font-size: 10px; fill: black; font-weight: bold;">30 - 39</tspan></text><text x="399" y="374.96371275783036" text-anchor="start"><tspan alignment-baseline="middle" x="399" style="font-family: Arial, sans-serif; font-size: 10px; fill: black; font-weight: bold;">40 - 49</tspan></text><text x="399" y="421.8563789152024" text-anchor="start"><tspan alignment-baseline="middle" x="399" style="font-family: Arial, sans-serif; font-size: 10px; fill: black; font-weight: bold;">50 - 59</tspan></text><text x="399" y="447.7005347593583" text-anchor="start"><tspan alignment-baseline="middle" x="399" style="font-family: Arial, sans-serif; font-size: 10px; fill: black; font-weight: bold;">60 - 69</tspan></text><text x="399" y="460.670359052712" text-anchor="start"><tspan alignment-baseline="middle" x="399" style="font-family: Arial, sans-serif; font-size: 10px; fill: black; font-weight: bold;">70 - 79</tspan></text><text x="399" y="467.3051948051948" text-anchor="start"><tspan alignment-baseline="middle" x="399" style="font-family: Arial, sans-serif; font-size: 10px; fill: black; font-weight: bold;">80 - 89</tspan></text><text x="776" y="185.32276546982428" text-anchor="end"><tspan alignment-baseline="middle" x="776" style="font-family: Arial, sans-serif; font-size: 10px; fill: black; font-weight: bold;">no</tspan></text><text x="399" y="526.2547746371276" text-anchor="start"><tspan alignment-baseline="middle" x="399" style="font-family: Arial, sans-serif; font-size: 10px; fill: black; font-weight: bold;">unknown</tspan></text><text x="776" y="457.8227654698243" text-anchor="end"><tspan alignment-baseline="middle" x="776" style="font-family: Arial, sans-serif; font-size: 10px; fill: black; font-weight: bold;">yes</tspan></text></g><g><text x="2.5" y="13.5" text-anchor="middle" style="font-family: Arial, sans-serif; font-size: 12px; fill: rgb(123, 123, 123); font-weight: bold;">Class</text><text x="392.5" y="-4" text-anchor="middle" style="font-family: Arial, sans-serif; font-size: 12px; fill: rgb(123, 123, 123); font-weight: bold;">Age group</text><text x="782.5" y="16" text-anchor="middle" style="font-family: Arial, sans-serif; font-size: 12px; fill: rgb(123, 123, 123); font-weight: bold;">Survival</text></g></g></svg>